<svg width="220" height="226" viewBox="0 0 220 226" fill="none" xmlns="http://www.w3.org/2000/svg">
<g filter="url(#filter0_d)">
<g filter="url(#filter1_ii)">
<path d="M78.5772 16.6073V28.6472L141.898 28.2013V14.8236L155.276 1H196.301L214.584 21.9584V55.4026L196.301 72.3476V79.4824L214.584 97.7652V142.803L200.314 154.843V177.585L180.693 197.652L166.87 203.895H79.4691H54.0515L40.2279 196.76L18.8236 175.356V153.952L5 142.803L6.33777 96.4275L22.8369 79.4824H25.9584V72.3476L6.33777 53.6189V22.4043L26.8502 2.78369H66.0914L78.5772 16.6073Z" fill="#FD7A4A"/>
</g>
<path d="M78.5772 16.6073V28.6472L141.898 28.2013V14.8236L155.276 1H196.301L214.584 21.9584V55.4026L196.301 72.3476V79.4824L214.584 97.7652V142.803L200.314 154.843V177.585L180.693 197.652L166.87 203.895H79.4691H54.0515L40.2279 196.76L18.8236 175.356V153.952L5 142.803L6.33777 96.4275L22.8369 79.4824H25.9584V72.3476L6.33777 53.6189V22.4043L26.8502 2.78369H66.0914L78.5772 16.6073Z" stroke="black"/>
<path d="M72.3232 28.201H66.0804L58.4997 17.4989H32.1904L22.3802 28.201H21.4883V47.3757L25.0557 51.8349H27.7312V58.9697H24.1638V61.6452H21.0424V58.9697H17.921V55.4023H14.7995V51.8349H11.6781V25.0796H14.7995V21.5122H17.921V17.9448H21.4883V14.3774H25.0557V11.7019H27.7312V10.8101H28.6231V8.13452H62.274V10.8101H66.0804V14.3774H68.7559V17.9448H72.3232V28.201Z" fill="#FD7A4A" stroke="#FD7A4A"/>
<g filter="url(#filter2_f)">
<path d="M58.0585 17.9446L65.1933 27.7549H55.8289L50.0319 34.4437L46.0186 35.3355L30.8573 50.9428H25.5062L22.3848 46.9295V28.932L32.641 17.9446H58.0585Z" fill="#852244"/>
<path d="M58.0585 17.9446L65.1933 27.7549H55.8289L50.0319 34.4437L46.0186 35.3355L30.8573 50.9428H25.5062L22.3848 46.9295V28.932L32.641 17.9446H58.0585Z" stroke="#852244"/>
</g>
<path d="M148.133 28.2013H154.376L161.957 17.4992H188.266L198.076 28.2013H198.968V47.376L195.401 51.8352H192.725V58.97H196.293V61.6455H199.414V58.97H202.536V55.4026H205.657V51.8352H208.778V25.0799H205.657V21.5125H202.536V17.9451H198.968V14.3777H195.401V11.7022H192.725V10.8104H191.833V8.13483H158.182V10.8104H154.376V14.3777H151.701V17.9451H148.133V28.2013Z" fill="#FD7A4A" stroke="#FD7A4A"/>
<g filter="url(#filter3_f)">
<path d="M162.411 17.9449L155.276 27.7551H164.641L170.438 34.444L174.451 35.3358L189.612 50.943H194.964L198.085 46.9298V28.9323L187.829 17.9449H162.411Z" fill="#852244"/>
<path d="M162.411 17.9449L155.276 27.7551H164.641L170.438 34.444L174.451 35.3358L189.612 50.943H194.964L198.085 46.9298V28.9323L187.829 17.9449H162.411Z" stroke="#852244"/>
</g>
<g filter="url(#filter4_f)">
<path d="M189.576 51.8349H192.251V56.2941H189.576V82.1575L204.291 95.5352H189.576L181.103 103.116V106.237H177.536V108.913H167.28V112.034H157.47V115.602H153.902V118.277H148.105V116.493H145.876L144.092 113.372L140.97 110.251L137.849 106.683L134.282 103.116H127.593V96.427H92.3651V103.116H87.014L83.0007 106.683L79.8793 110.251L75.866 113.372L72.2986 116.493V118.277H67.3935V115.602H63.8261V112.034H53.124V108.913H43.3138V106.237L32.6116 95.5352H18.7881L26.3687 88.8464V85.279H29.9361V82.1575H32.6116V56.2941H28.5984V51.389H31.2739L45.9893 35.7817L50.0026 34.8899H170.847L173.969 35.7817L189.576 51.8349Z" fill="#FD7A4A"/>
<path d="M189.576 51.8349H192.251V56.2941H189.576V82.1575L204.291 95.5352H189.576L181.103 103.116V106.237H177.536V108.913H167.28V112.034H157.47V115.602H153.902V118.277H148.105V116.493H145.876L144.092 113.372L140.97 110.251L137.849 106.683L134.282 103.116H127.593V96.427H92.3651V103.116H87.014L83.0007 106.683L79.8793 110.251L75.866 113.372L72.2986 116.493V118.277H67.3935V115.602H63.8261V112.034H53.124V108.913H43.3138V106.237L32.6116 95.5352H18.7881L26.3687 88.8464V85.279H29.9361V82.1575H32.6116V56.2941H28.5984V51.389H31.2739L45.9893 35.7817L50.0026 34.8899H170.847L173.969 35.7817L189.576 51.8349Z" stroke="#FD7A4A"/>
</g>
<g filter="url(#filter5_f)">
<path d="M79.8843 69.226H66.9526V55.4025L74.5333 48.7136H87.0191V61.6454L83.0058 65.6587H79.8843V69.226Z" fill="#FFA558"/>
<path d="M79.8843 69.226H66.9526V55.4025L74.5333 48.7136H87.0191V61.6454L83.0058 65.6587H79.8843V69.226Z" stroke="#FFA558"/>
</g>
<g filter="url(#filter6_f)">
<path d="M141.922 69.226H154.854V55.4025L147.273 48.7136H134.787V61.6454L138.8 65.6587H141.922V69.226Z" fill="#FFA558"/>
<path d="M141.922 69.226H154.854V55.4025L147.273 48.7136H134.787V61.6454L138.8 65.6587H141.922V69.226Z" stroke="#FFA558"/>
</g>
<g filter="url(#filter7_d)">
<path d="M168.233 103.116H144.153V99.5487H141.031V82.6037H144.599V79.0364H147.72V75.9149H168.678V79.0364H171.8V82.6037H174.921V96.8732H171.8V99.5487H168.233V103.116Z" fill="#852244" stroke="#822844"/>
<path d="M144.59 89.2926V82.1578H148.158V78.5904H155.292V82.1578H158.86V89.2926H155.292V92.86H148.158V89.2926H144.59Z" fill="#FFC2DC" stroke="#FFBDD9"/>
<path d="M168.686 92.8598H161.551V99.9946H168.686V92.8598Z" fill="#FFC2DC" stroke="#FFC2DC"/>
</g>
<g filter="url(#filter8_d)">
<path d="M53.5977 102.67H77.2316V99.5486H79.9071V82.1577H76.3397V78.5903H73.2183V75.4689H52.26V78.5903H49.1385V82.1577H46.0171V96.4272H50.0304V99.5486H53.5977V102.67Z" fill="#852244"/>
<path d="M53.5977 102.67H77.2316V99.5486H79.9071V82.1577H76.3397V78.5903H73.2183V75.4689H52.26V78.5903H49.1385V82.1577H46.0171V96.4272H50.0304V99.5486H53.5977V102.67Z" stroke="#822844"/>
</g>
<path d="M49.1641 89.2924V82.1576H52.7314V78.5902H59.8662V82.1576H63.4336V89.2924H59.8662V92.8597H52.7314V89.2924H49.1641Z" fill="#FFC2DC" stroke="#FFBDD9"/>
<path d="M76.8076 92.8597H69.6729V99.9945H76.8076V92.8597Z" fill="#FFC2DC" stroke="#FFC2DC"/>
<g filter="url(#filter9_d)">
<path d="M147.688 116.94V118.723H154.823V116.494H158.39V112.48H168.2V109.805H178.457V107.129H182.024V103.116L190.051 96.4272H205.658V99.9945H208.779V139.681H205.658V142.803H202.09V146.816H198.523V150.384H194.956V156.626H161.958V153.951H154.377V149.492H149.026V146.37H141.445V143.249H79.4623V146.816H72.7735V150.829H66.5306V153.505H58.9499V157.072H25.9518V150.829L12.5742 139.681V99.9945H16.1416V96.4272H32.1947L42.4509 106.683V109.805H52.2611V112.926H62.9632V116.494H66.5306V119.169H72.7735V116.94L80.3541 110.697L83.4756 107.129L86.597 104.008H92.8399V96.8731H100.421V103.116H103.096V106.683H106.663V115.602H99.5287V119.615H96.4072V122.736H92.8399V124.966H91.948V125.858H89.2725V128.533H84.8133V125.858H81.2459V122.291H72.3275V131.209H75.0031V133.884H75.8949V134.776H78.5704V137.452H79.4623V138.344H93.7317V137.452H94.6236V134.776H97.2991V133.884H99.9746V137.452H103.542V141.019H117.811V137.452H121.379V133.884H126.73V136.56H127.622V137.898H142.783V134.33H145.458V132.101H146.35V131.209H149.026V122.291H140.107V125.858H136.54V128.533H134.756V129.425H132.973V128.533H132.081V125.858H128.514V122.291H125.838V121.399H124.946V118.723H122.271V115.156H115.136V107.129H118.703V103.562H121.173V96.8731H127.176V103.562H134.31L143.675 113.818L145.458 116.94H147.688Z" fill="#F3B775" stroke="#F3B775"/>
<g filter="url(#filter10_f)">
<path d="M182.023 106.683V104.008V103.116H192.725L202.536 113.818L202.09 132.993L185.591 147.262V150.383H165.97L148.133 132.993V129.425L149.025 126.75L150.363 124.966L152.593 123.182L153.93 121.399L154.822 116.939H158.835V113.372H168.646V109.805H178.902V106.683H182.023Z" fill="#FFE69D"/>
<path d="M182.023 106.683V104.008V103.116H192.725L202.536 113.818L202.09 132.993L185.591 147.262V150.383H165.97L148.133 132.993V129.425L149.025 126.75L150.363 124.966L152.593 123.182L153.93 121.399L154.822 116.939H158.835V113.372H168.646V109.805H178.902V106.683H182.023Z" stroke="#FFE69D"/>
</g>
<g filter="url(#filter11_f)">
<path d="M38.4225 106.683V104.008V103.116H27.7204L17.9101 113.818L18.3561 132.993L34.8551 147.262V150.383H54.4757L72.3125 132.993V129.425L71.4207 126.75L70.0829 124.966L67.8533 123.182L66.5155 121.399L65.6237 116.939H61.6104V113.372H51.8001V109.805H41.544V106.683H38.4225Z" fill="#FFE69D"/>
<path d="M38.4225 106.683V104.008V103.116H27.7204L17.9101 113.818L18.3561 132.993L34.8551 147.262V150.383H54.4757L72.3125 132.993V129.425L71.4207 126.75L70.0829 124.966L67.8533 123.182L66.5155 121.399L65.6237 116.939H61.6104V113.372H51.8001V109.805H41.544V106.683H38.4225Z" stroke="#FFE69D"/>
</g>
<path d="M96.8223 132.993V131.209H99.9437V128.533L109.754 121.845H111.538L120.902 128.533V131.209H123.578V132.993H120.456V136.56H116.889V140.127H104.403V136.56H100.836V132.993H96.8223Z" fill="#83273D" stroke="#83273D"/>
<g filter="url(#filter12_d)">
<path d="M120.514 102.67V96.873H100.893V102.67H103.569V106.237H107.136V116.048H100.001V119.615H96.8799V123.182H93.7585V125.858H92.8666V126.75H90.1911V129.425H83.9482V126.75H80.3808V123.182H73.2461V130.317H75.9216V132.993H76.8135V133.884H79.489V136.56H80.3808V137.452H92.8666V136.56H93.7585V133.884H96.434V130.763H99.5555V128.087L107.136 123.182L109.812 120.953H111.595L114.271 123.182L121.852 128.087V130.763H124.081V132.993H127.649V135.668H128.54V137.006H141.918V133.438H144.594V131.209H145.485V130.317H148.161V123.182H141.026V126.75H137.459V129.425H135.675V130.317H132.108V129.425H131.216V126.75H127.649V123.182H124.973V122.29H124.081V119.615H121.406V116.048H114.271V106.237H117.838V102.67H120.514Z" fill="#99452A"/>
<path d="M120.514 102.67V96.873H100.893V102.67H103.569V106.237H107.136V116.048H100.001V119.615H96.8799V123.182H93.7585V125.858H92.8666V126.75H90.1911V129.425H83.9482V126.75H80.3808V123.182H73.2461V130.317H75.9216V132.993H76.8135V133.884H79.489V136.56H80.3808V137.452H92.8666V136.56H93.7585V133.884H96.434V130.763H99.5555V128.087L107.136 123.182L109.812 120.953H111.595L114.271 123.182L121.852 128.087V130.763H124.081V132.993H127.649V135.668H128.54V137.006H141.918V133.438H144.594V131.209H145.485V130.317H148.161V123.182H141.026V126.75H137.459V129.425H135.675V130.317H132.108V129.425H131.216V126.75H127.649V123.182H124.973V122.29H124.081V119.615H121.406V116.048H114.271V106.237H117.838V102.67H120.514Z" stroke="#99452A"/>
</g>
<g filter="url(#filter13_d)">
<path d="M117.812 97.319H103.542V99.1027H104.434V99.9946H107.11V102.67H114.245V99.9946H116.92V99.1027H117.812V97.319Z" fill="url(#paint0_radial)"/>
<path d="M117.812 97.319H103.542V99.1027H104.434V99.9946H107.11V102.67H114.245V99.9946H116.92V99.1027H117.812V97.319Z" stroke="#F3B88C"/>
</g>
<g filter="url(#filter14_f)">
<path d="M94.1852 99.1027H99.0903V104.9H102.212V108.467H105.779V115.602H98.6444V119.615H95.077V122.736H91.9556V124.966H91.0638V125.858H88.3882V128.533H85.7127V125.858H82.1453V122.291H76.7943V119.615H73.6729L74.5647 117.385L80.8076 112.48L87.4964 105.792H94.1852V99.1027Z" fill="#FFE69D"/>
<path d="M94.1852 99.1027H99.0903V104.9H102.212V108.467H105.779V115.602H98.6444V119.615H95.077V122.736H91.9556V124.966H91.0638V125.858H88.3882V128.533H85.7127V125.858H82.1453V122.291H76.7943V119.615H73.6729L74.5647 117.385L80.8076 112.48L87.4964 105.792H94.1852V99.1027Z" stroke="#FFE69D"/>
</g>
<g filter="url(#filter15_f)">
<path d="M127.194 99.1027H122.289V104.9H119.168V108.467H115.6V115.602H122.735V119.615H126.302V122.736H129.424V124.966H130.316V125.858H132.991V128.533H135.667V125.858H139.234V122.291H144.585V119.615H147.707L146.815 117.385L140.572 112.48L133.883 105.792H127.194V99.1027Z" fill="#FFE69D"/>
<path d="M127.194 99.1027H122.289V104.9H119.168V108.467H115.6V115.602H122.735V119.615H126.302V122.736H129.424V124.966H130.316V125.858H132.991V128.533H135.667V125.858H139.234V122.291H144.585V119.615H147.707L146.815 117.385L140.572 112.48L133.883 105.792H127.194V99.1027Z" stroke="#FFE69D"/>
</g>
</g>
<g filter="url(#filter16_ii)">
<g filter="url(#filter17_i)">
<path d="M139.692 210.137V193.192H143.259V189.625H146.381V174.463H144.151L140.584 172.234L139.692 169.112H129.436L127.652 168.22L122.747 164.207V159.302H119.179V145.924H102.234V159.302H99.113V164.207L93.316 168.22L92.4241 170.896H78.1547V174.463H75.0332V189.625H78.1547V193.192H81.722V209.691H98.667V213.258H102.68V216.38H119.179V213.258H122.747V210.137H139.692Z" fill="#FC599E"/>
</g>
<path d="M135.679 193.192H139.692M139.692 193.192V210.137H122.747M139.692 193.192H143.259V189.625H146.381V174.463H144.151L140.584 172.234L139.692 169.112H129.436L127.652 168.22L122.747 164.207V159.302H119.179V145.924H102.234V159.302H99.113V164.207L93.316 168.22L92.4241 170.896H78.1547V174.463H75.0332V189.625H78.1547V193.192H85.7353H81.722V209.691H98.667M122.747 210.137V206.124M122.747 210.137V213.258H119.179V216.38H102.68V213.258H98.667V209.691M98.667 206.124V209.691" stroke="#822844" stroke-opacity="0.69" stroke-width="2"/>
<g filter="url(#filter18_df)">
<path d="M100.39 167.329H120.902V170.896H124.469V191.409H120.902V194.976H100.39V191.409H96.8223V170.896H100.39V167.329Z" fill="#E3A317"/>
<path d="M100.39 167.329H120.902V170.896H124.469V191.409H120.902V194.976H100.39V191.409H96.8223V170.896H100.39V167.329Z" stroke="#E3A317"/>
</g>
</g>
<g filter="url(#filter19_di)">
<path d="M94.5956 170.004H83.0016H81.6639V174.463H78.5424V177.139H75.421V188.733H72.2995V192.3H69.1781V194.976H52.679V178.477H56.2464V175.355H59.3678V171.788H62.4893V169.558H64.2729L66.0566 164.653H80.3261V152.167H96.3793V154.843H98.6089V167.775H94.5956V170.004Z" fill="#FFE69D"/>
<path d="M94.5956 170.004H83.0016H81.6639V174.463H78.5424V177.139H75.421V188.733H72.2995V192.3H69.1781V194.976H52.679V178.477H56.2464V175.355H59.3678V171.788H62.4893V169.558H64.2729L66.0566 164.653H80.3261V152.167H96.3793V154.843H98.6089V167.775H94.5956V170.004Z" stroke="#F3B775"/>
</g>
<g filter="url(#filter20_di)">
<path d="M127.211 168.22H138.805H140.142V172.68H143.264V175.355H146.385V186.949H149.507V190.517H152.628V193.192H169.127V176.693H165.56V173.572H162.438V170.004H159.317V167.775H157.533L155.75 162.869H141.48V150.384H125.427V153.059H123.197V165.991H127.211V168.22Z" fill="#FFE69D"/>
<path d="M127.211 168.22H138.805H140.142V172.68H143.264V175.355H146.385V186.949H149.507V190.517H152.628V193.192H169.127V176.693H165.56V173.572H162.438V170.004H159.317V167.775H157.533L155.75 162.869H141.48V150.384H125.427V153.059H123.197V165.991H127.211V168.22Z" stroke="#F3B775"/>
</g>
</g>
<defs>
<filter id="filter0_d" x="0.493164" y="0.5" width="218.591" height="224.88" filterUnits="userSpaceOnUse" color-interpolation-filters="sRGB">
<feFlood flood-opacity="0" result="BackgroundImageFix"/>
<feColorMatrix in="SourceAlpha" type="matrix" values="0 0 0 0 0 0 0 0 0 0 0 0 0 0 0 0 0 0 127 0"/>
<feOffset dy="4"/>
<feGaussianBlur stdDeviation="2"/>
<feColorMatrix type="matrix" values="0 0 0 0 0 0 0 0 0 0 0 0 0 0 0 0 0 0 0.25 0"/>
<feBlend mode="normal" in2="BackgroundImageFix" result="effect1_dropShadow"/>
<feBlend mode="normal" in="SourceGraphic" in2="effect1_dropShadow" result="shape"/>
</filter>
<filter id="filter1_ii" x="-5.50684" y="-5.5" width="228.591" height="217.895" filterUnits="userSpaceOnUse" color-interpolation-filters="sRGB">
<feFlood flood-opacity="0" result="BackgroundImageFix"/>
<feBlend mode="normal" in="SourceGraphic" in2="BackgroundImageFix" result="shape"/>
<feColorMatrix in="SourceAlpha" type="matrix" values="0 0 0 0 0 0 0 0 0 0 0 0 0 0 0 0 0 0 127 0" result="hardAlpha"/>
<feOffset dx="28" dy="39"/>
<feGaussianBlur stdDeviation="4"/>
<feComposite in2="hardAlpha" operator="arithmetic" k2="-1" k3="1"/>
<feColorMatrix type="matrix" values="0 0 0 0 0 0 0 0 0 0 0 0 0 0 0 0 0 0 0.25 0"/>
<feBlend mode="normal" in2="shape" result="effect1_innerShadow"/>
<feColorMatrix in="SourceAlpha" type="matrix" values="0 0 0 0 0 0 0 0 0 0 0 0 0 0 0 0 0 0 127 0" result="hardAlpha"/>
<feOffset dx="-13" dy="-6"/>
<feGaussianBlur stdDeviation="5"/>
<feComposite in2="hardAlpha" operator="arithmetic" k2="-1" k3="1"/>
<feColorMatrix type="matrix" values="0 0 0 0 0 0 0 0 0 0 0 0 0 0 0 0 0 0 0.25 0"/>
<feBlend mode="normal" in2="effect1_innerShadow" result="effect2_innerShadow"/>
</filter>
<filter id="filter2_f" x="17.8848" y="13.4446" width="52.2904" height="41.9982" filterUnits="userSpaceOnUse" color-interpolation-filters="sRGB">
<feFlood flood-opacity="0" result="BackgroundImageFix"/>
<feBlend mode="normal" in="SourceGraphic" in2="BackgroundImageFix" result="shape"/>
<feGaussianBlur stdDeviation="2" result="effect1_foregroundBlur"/>
</filter>
<filter id="filter3_f" x="150.294" y="13.4449" width="52.2904" height="41.9982" filterUnits="userSpaceOnUse" color-interpolation-filters="sRGB">
<feFlood flood-opacity="0" result="BackgroundImageFix"/>
<feBlend mode="normal" in="SourceGraphic" in2="BackgroundImageFix" result="shape"/>
<feGaussianBlur stdDeviation="2" result="effect1_foregroundBlur"/>
</filter>
<filter id="filter4_f" x="13.4658" y="30.3899" width="196.119" height="92.3873" filterUnits="userSpaceOnUse" color-interpolation-filters="sRGB">
<feFlood flood-opacity="0" result="BackgroundImageFix"/>
<feBlend mode="normal" in="SourceGraphic" in2="BackgroundImageFix" result="shape"/>
<feGaussianBlur stdDeviation="2" result="effect1_foregroundBlur"/>
</filter>
<filter id="filter5_f" x="62.4526" y="44.2136" width="29.0664" height="29.5124" filterUnits="userSpaceOnUse" color-interpolation-filters="sRGB">
<feFlood flood-opacity="0" result="BackgroundImageFix"/>
<feBlend mode="normal" in="SourceGraphic" in2="BackgroundImageFix" result="shape"/>
<feGaussianBlur stdDeviation="2" result="effect1_foregroundBlur"/>
</filter>
<filter id="filter6_f" x="130.287" y="44.2136" width="29.0664" height="29.5124" filterUnits="userSpaceOnUse" color-interpolation-filters="sRGB">
<feFlood flood-opacity="0" result="BackgroundImageFix"/>
<feBlend mode="normal" in="SourceGraphic" in2="BackgroundImageFix" result="shape"/>
<feGaussianBlur stdDeviation="2" result="effect1_foregroundBlur"/>
</filter>
<filter id="filter7_d" x="136.531" y="75.4149" width="42.89" height="36.2012" filterUnits="userSpaceOnUse" color-interpolation-filters="sRGB">
<feFlood flood-opacity="0" result="BackgroundImageFix"/>
<feColorMatrix in="SourceAlpha" type="matrix" values="0 0 0 0 0 0 0 0 0 0 0 0 0 0 0 0 0 0 127 0"/>
<feOffset dy="4"/>
<feGaussianBlur stdDeviation="2"/>
<feColorMatrix type="matrix" values="0 0 0 0 0 0 0 0 0 0 0 0 0 0 0 0 0 0 0.25 0"/>
<feBlend mode="normal" in2="BackgroundImageFix" result="effect1_dropShadow"/>
<feBlend mode="normal" in="SourceGraphic" in2="effect1_dropShadow" result="shape"/>
</filter>
<filter id="filter8_d" x="41.5171" y="74.9689" width="42.89" height="36.2012" filterUnits="userSpaceOnUse" color-interpolation-filters="sRGB">
<feFlood flood-opacity="0" result="BackgroundImageFix"/>
<feColorMatrix in="SourceAlpha" type="matrix" values="0 0 0 0 0 0 0 0 0 0 0 0 0 0 0 0 0 0 127 0"/>
<feOffset dy="4"/>
<feGaussianBlur stdDeviation="2"/>
<feColorMatrix type="matrix" values="0 0 0 0 0 0 0 0 0 0 0 0 0 0 0 0 0 0 0.25 0"/>
<feBlend mode="normal" in2="BackgroundImageFix" result="effect1_dropShadow"/>
<feBlend mode="normal" in="SourceGraphic" in2="effect1_dropShadow" result="shape"/>
</filter>
<filter id="filter9_d" x="8.07422" y="95.9272" width="205.205" height="69.6452" filterUnits="userSpaceOnUse" color-interpolation-filters="sRGB">
<feFlood flood-opacity="0" result="BackgroundImageFix"/>
<feColorMatrix in="SourceAlpha" type="matrix" values="0 0 0 0 0 0 0 0 0 0 0 0 0 0 0 0 0 0 127 0"/>
<feOffset dy="4"/>
<feGaussianBlur stdDeviation="2"/>
<feColorMatrix type="matrix" values="0 0 0 0 0 0 0 0 0 0 0 0 0 0 0 0 0 0 0.25 0"/>
<feBlend mode="normal" in2="BackgroundImageFix" result="effect1_dropShadow"/>
<feBlend mode="normal" in="SourceGraphic" in2="effect1_dropShadow" result="shape"/>
</filter>
<filter id="filter10_f" x="143.633" y="98.6159" width="63.4069" height="56.2675" filterUnits="userSpaceOnUse" color-interpolation-filters="sRGB">
<feFlood flood-opacity="0" result="BackgroundImageFix"/>
<feBlend mode="normal" in="SourceGraphic" in2="BackgroundImageFix" result="shape"/>
<feGaussianBlur stdDeviation="2" result="effect1_foregroundBlur"/>
</filter>
<filter id="filter11_f" x="13.4058" y="98.6159" width="63.4069" height="56.2675" filterUnits="userSpaceOnUse" color-interpolation-filters="sRGB">
<feFlood flood-opacity="0" result="BackgroundImageFix"/>
<feBlend mode="normal" in="SourceGraphic" in2="BackgroundImageFix" result="shape"/>
<feGaussianBlur stdDeviation="2" result="effect1_foregroundBlur"/>
</filter>
<filter id="filter12_d" x="68.7461" y="96.373" width="83.9148" height="49.5788" filterUnits="userSpaceOnUse" color-interpolation-filters="sRGB">
<feFlood flood-opacity="0" result="BackgroundImageFix"/>
<feColorMatrix in="SourceAlpha" type="matrix" values="0 0 0 0 0 0 0 0 0 0 0 0 0 0 0 0 0 0 127 0"/>
<feOffset dy="4"/>
<feGaussianBlur stdDeviation="2"/>
<feColorMatrix type="matrix" values="0 0 0 0 0 0 0 0 0 0 0 0 0 0 0 0 0 0 0.25 0"/>
<feBlend mode="normal" in2="BackgroundImageFix" result="effect1_dropShadow"/>
<feBlend mode="normal" in="SourceGraphic" in2="effect1_dropShadow" result="shape"/>
</filter>
<filter id="filter13_d" x="99.0425" y="96.819" width="23.2695" height="14.3511" filterUnits="userSpaceOnUse" color-interpolation-filters="sRGB">
<feFlood flood-opacity="0" result="BackgroundImageFix"/>
<feColorMatrix in="SourceAlpha" type="matrix" values="0 0 0 0 0 0 0 0 0 0 0 0 0 0 0 0 0 0 127 0"/>
<feOffset dy="4"/>
<feGaussianBlur stdDeviation="2"/>
<feColorMatrix type="matrix" values="0 0 0 0 0 0 0 0 0 0 0 0 0 0 0 0 0 0 0.25 0"/>
<feBlend mode="normal" in2="BackgroundImageFix" result="effect1_dropShadow"/>
<feBlend mode="normal" in="SourceGraphic" in2="effect1_dropShadow" result="shape"/>
</filter>
<filter id="filter14_f" x="68.9346" y="94.6027" width="41.3448" height="38.4307" filterUnits="userSpaceOnUse" color-interpolation-filters="sRGB">
<feFlood flood-opacity="0" result="BackgroundImageFix"/>
<feBlend mode="normal" in="SourceGraphic" in2="BackgroundImageFix" result="shape"/>
<feGaussianBlur stdDeviation="2" result="effect1_foregroundBlur"/>
</filter>
<filter id="filter15_f" x="111.1" y="94.6027" width="41.3448" height="38.4307" filterUnits="userSpaceOnUse" color-interpolation-filters="sRGB">
<feFlood flood-opacity="0" result="BackgroundImageFix"/>
<feBlend mode="normal" in="SourceGraphic" in2="BackgroundImageFix" result="shape"/>
<feGaussianBlur stdDeviation="2" result="effect1_foregroundBlur"/>
</filter>
<filter id="filter16_ii" x="74.0332" y="140.924" width="73.3474" height="81.4556" filterUnits="userSpaceOnUse" color-interpolation-filters="sRGB">
<feFlood flood-opacity="0" result="BackgroundImageFix"/>
<feBlend mode="normal" in="SourceGraphic" in2="BackgroundImageFix" result="shape"/>
<feColorMatrix in="SourceAlpha" type="matrix" values="0 0 0 0 0 0 0 0 0 0 0 0 0 0 0 0 0 0 127 0" result="hardAlpha"/>
<feOffset dy="9"/>
<feGaussianBlur stdDeviation="2.5"/>
<feComposite in2="hardAlpha" operator="arithmetic" k2="-1" k3="1"/>
<feColorMatrix type="matrix" values="0 0 0 0 0 0 0 0 0 0 0 0 0 0 0 0 0 0 0.25 0"/>
<feBlend mode="normal" in2="shape" result="effect1_innerShadow"/>
<feColorMatrix in="SourceAlpha" type="matrix" values="0 0 0 0 0 0 0 0 0 0 0 0 0 0 0 0 0 0 127 0" result="hardAlpha"/>
<feOffset dy="-8"/>
<feGaussianBlur stdDeviation="2"/>
<feComposite in2="hardAlpha" operator="arithmetic" k2="-1" k3="1"/>
<feColorMatrix type="matrix" values="0 0 0 0 0.521569 0 0 0 0 0.133333 0 0 0 0 0.266667 0 0 0 0.45 0"/>
<feBlend mode="normal" in2="effect1_innerShadow" result="effect2_innerShadow"/>
</filter>
<filter id="filter17_i" x="74.0332" y="144.924" width="73.3474" height="76.4556" filterUnits="userSpaceOnUse" color-interpolation-filters="sRGB">
<feFlood flood-opacity="0" result="BackgroundImageFix"/>
<feBlend mode="normal" in="SourceGraphic" in2="BackgroundImageFix" result="shape"/>
<feColorMatrix in="SourceAlpha" type="matrix" values="0 0 0 0 0 0 0 0 0 0 0 0 0 0 0 0 0 0 127 0" result="hardAlpha"/>
<feOffset dy="4"/>
<feGaussianBlur stdDeviation="2"/>
<feComposite in2="hardAlpha" operator="arithmetic" k2="-1" k3="1"/>
<feColorMatrix type="matrix" values="0 0 0 0 0 0 0 0 0 0 0 0 0 0 0 0 0 0 0.25 0"/>
<feBlend mode="normal" in2="shape" result="effect1_innerShadow"/>
</filter>
<filter id="filter18_df" x="92.3223" y="162.829" width="36.6472" height="40.6472" filterUnits="userSpaceOnUse" color-interpolation-filters="sRGB">
<feFlood flood-opacity="0" result="BackgroundImageFix"/>
<feColorMatrix in="SourceAlpha" type="matrix" values="0 0 0 0 0 0 0 0 0 0 0 0 0 0 0 0 0 0 127 0"/>
<feOffset dy="4"/>
<feGaussianBlur stdDeviation="2"/>
<feColorMatrix type="matrix" values="0 0 0 0 0 0 0 0 0 0 0 0 0 0 0 0 0 0 0.25 0"/>
<feBlend mode="normal" in2="BackgroundImageFix" result="effect1_dropShadow"/>
<feBlend mode="normal" in="SourceGraphic" in2="effect1_dropShadow" result="shape"/>
<feGaussianBlur stdDeviation="2" result="effect2_foregroundBlur"/>
</filter>
<filter id="filter19_di" x="48.1792" y="151.667" width="54.9299" height="51.8085" filterUnits="userSpaceOnUse" color-interpolation-filters="sRGB">
<feFlood flood-opacity="0" result="BackgroundImageFix"/>
<feColorMatrix in="SourceAlpha" type="matrix" values="0 0 0 0 0 0 0 0 0 0 0 0 0 0 0 0 0 0 127 0"/>
<feOffset dy="4"/>
<feGaussianBlur stdDeviation="2"/>
<feColorMatrix type="matrix" values="0 0 0 0 0 0 0 0 0 0 0 0 0 0 0 0 0 0 0.25 0"/>
<feBlend mode="normal" in2="BackgroundImageFix" result="effect1_dropShadow"/>
<feBlend mode="normal" in="SourceGraphic" in2="effect1_dropShadow" result="shape"/>
<feColorMatrix in="SourceAlpha" type="matrix" values="0 0 0 0 0 0 0 0 0 0 0 0 0 0 0 0 0 0 127 0" result="hardAlpha"/>
<feOffset dy="4"/>
<feGaussianBlur stdDeviation="4.5"/>
<feComposite in2="hardAlpha" operator="arithmetic" k2="-1" k3="1"/>
<feColorMatrix type="matrix" values="0 0 0 0 0.952941 0 0 0 0 0.717647 0 0 0 0 0.458824 0 0 0 1 0"/>
<feBlend mode="normal" in2="shape" result="effect2_innerShadow"/>
</filter>
<filter id="filter20_di" x="118.697" y="149.884" width="54.9299" height="51.8085" filterUnits="userSpaceOnUse" color-interpolation-filters="sRGB">
<feFlood flood-opacity="0" result="BackgroundImageFix"/>
<feColorMatrix in="SourceAlpha" type="matrix" values="0 0 0 0 0 0 0 0 0 0 0 0 0 0 0 0 0 0 127 0"/>
<feOffset dy="4"/>
<feGaussianBlur stdDeviation="2"/>
<feColorMatrix type="matrix" values="0 0 0 0 0 0 0 0 0 0 0 0 0 0 0 0 0 0 0.25 0"/>
<feBlend mode="normal" in2="BackgroundImageFix" result="effect1_dropShadow"/>
<feBlend mode="normal" in="SourceGraphic" in2="effect1_dropShadow" result="shape"/>
<feColorMatrix in="SourceAlpha" type="matrix" values="0 0 0 0 0 0 0 0 0 0 0 0 0 0 0 0 0 0 127 0" result="hardAlpha"/>
<feOffset dy="4"/>
<feGaussianBlur stdDeviation="4.5"/>
<feComposite in2="hardAlpha" operator="arithmetic" k2="-1" k3="1"/>
<feColorMatrix type="matrix" values="0 0 0 0 0.952941 0 0 0 0 0.717647 0 0 0 0 0.458824 0 0 0 1 0"/>
<feBlend mode="normal" in2="shape" result="effect2_innerShadow"/>
</filter>
<radialGradient id="paint0_radial" cx="0" cy="0" r="1" gradientUnits="userSpaceOnUse" gradientTransform="translate(110.677 99.9946) rotate(-92.8624) scale(8.92958 12.761)">
<stop offset="0.22138" stop-color="#F3B88C"/>
<stop offset="1" stop-color="#F3B88C" stop-opacity="0"/>
</radialGradient>
</defs>
</svg>
