<svg width="675" height="233" viewBox="0 0 675 233" fill="none" xmlns="http://www.w3.org/2000/svg">
<path fill-rule="evenodd" clip-rule="evenodd" d="M593 1H592.586L592.293 1.29289L583.793 9.79289L583.5 10.0858V10.5V85.5V85.9513L583.838 86.2498L592.338 93.7498L592.622 94H593H620.5H620.935L621.231 93.6823L628.231 86.1823L628.5 85.8942V85.5V65.5H629.535L653.235 93.6441L653.535 94H654H670H670.489L670.789 93.6139L674.289 89.1139L674.5 88.8431V88.5V73V72.5546L674.169 72.2567L659.5 59.0546V53.9806L674.125 42.2809L674.5 41.9806V41.5V15.5V15.1081L674.234 14.8206L661.734 1.32059L661.437 1H661H593ZM585.5 10.9142L593.414 3H660.563L672.5 15.8919V41.0194L657.875 52.7191L657.5 53.0194V53.5V59.5V59.9454L657.831 60.2433L672.5 73.4454V88.1569L669.511 92H654.465L630.765 63.8559L630.465 63.5H630H627.5H626.5V64.5V85.1058L620.065 92H593.378L585.5 85.0487V10.9142ZM629 22.5H628V23.5V33V34H629H645.5H646.5V33V23.5V22.5H645.5H629ZM630 32V24.5H644.5V32H630Z" fill="black"/>
<path fill-rule="evenodd" clip-rule="evenodd" d="M209.5 139H209.086L208.793 139.293L200.293 147.793L200 148.086V148.5V223.5V223.951L200.338 224.25L208.838 231.75L209.122 232H209.5H237H237.435L237.731 231.682L244.731 224.182L245 223.894V223.5V203.5H246.035L269.735 231.644L270.035 232H270.5H286.5H286.989L287.289 231.614L290.789 227.114L291 226.843V226.5V211V210.555L290.669 210.257L276 197.055V191.981L290.625 180.281L291 179.981V179.5V153.5V153.108L290.734 152.821L278.234 139.321L277.937 139H277.5H209.5ZM202 148.914L209.914 141H277.063L289 153.892V179.019L274.375 190.719L274 191.019V191.5V197.5V197.945L274.331 198.243L289 211.445V226.157L286.011 230H270.965L247.265 201.856L246.965 201.5H246.5H244H243V202.5V223.106L236.565 230H209.878L202 223.049V148.914ZM245.5 160.5H244.5V161.5V171V172H245.5H262H263V171V161.5V160.5H262H245.5ZM246.5 170V162.5H261V170H246.5Z" fill="black"/>
<path d="M408 1H478.5L487 12.6885V23.8689L478.5 32H461V83.8361L452 94H433L425 83.8361V32H408L398 23.8689V12.6885L408 1Z" stroke="black" stroke-width="2"/>
<path d="M18.5 1H45.5H47.5L56 13.1304V32.337H66V13.1304L74.5 1H90L97.5 13.1304V83.3859L90 94H74.5L66 83.3859V53.5652H56V83.3859L47.5 94H16.5L7 83.3859V13.1304L18.5 1Z" stroke="black" stroke-width="2"/>
<path fill-rule="evenodd" clip-rule="evenodd" d="M115 1H114.546L114.247 1.34149L103.747 13.3414L103.5 13.6242V13.9999V83.4996V83.9434L103.829 84.2411L114.329 93.7411L114.615 93.9995H115H139H139.399L139.689 93.7245L149.689 84.2246L150 83.9289V83.4996V47.4998H165.5V83.4996V83.8817L165.755 84.1664L174.255 93.6663L174.553 93.9995H175H185.5H185.965L186.265 93.6437L194.265 84.1437L194.5 83.8646V83.4996V13.9999V13.6972L194.332 13.4452L186.332 1.4453L186.035 1H185.5H115ZM105.5 14.3757L115.454 3H184.965L192.5 14.3027V83.1346L185.035 91.9995H175.447L167.5 83.1175V46.4998V45.4998H166.5H149H148V46.4998V83.0703L138.601 91.9995H115.385L105.5 83.0558V14.3757ZM149.5 22.5001H148.5V23.5001V33.5001V34.5001H149.5H166H167V33.5001V23.5001V22.5001H166H149.5ZM150.5 32.5001V24.5001H165V32.5001H150.5Z" fill="black"/>
<path fill-rule="evenodd" clip-rule="evenodd" d="M114.5 139H114.046L113.747 139.341L103.247 151.341L103 151.624V152V221.5V221.944L103.329 222.242L113.829 231.742L114.115 232H114.5H138.5H138.899L139.189 231.725L149.189 222.225L149.5 221.929V221.5V185.5H165V221.5V221.882L165.255 222.167L173.755 231.667L174.053 232H174.5H185H185.465L185.765 231.644L193.765 222.144L194 221.865V221.5V152V151.697L193.832 151.445L185.832 139.445L185.535 139H185H114.5ZM105 152.376L114.954 141H184.465L192 152.303V221.135L184.535 230H174.947L167 221.118V184.5V183.5H166H148.5H147.5V184.5V221.071L138.101 230H114.885L105 221.056V152.376ZM149 160.5H148V161.5V171.5V172.5H149H165.5H166.5V171.5V161.5V160.5H165.5H149ZM150 170.5V162.5H164.5V170.5H150Z" fill="black"/>
<path d="M210 1H234.5L244 12.8833V33.55L252 40.7833L260 33.55V12.8833L271 1H288L296.5 12.8833V84.7L288 94H271L262 84.7V61.9667H260L257 66.6167H250L247 61.9667H244V84.7L234.5 94H210L200.5 84.7V12.8833L210 1Z" stroke="black" stroke-width="2"/>
<path d="M10.5 232H35L44.5 220.117L53 211.85L62.5 220.117L71.5 232H88.5L97 220.117V148.3L88.5 139H71.5L62.5 148.3V190.667H60.5L57.5 186.017H50.5L47.5 190.667H44.5V148.3L35 139H10.5L1 148.3V220.117L10.5 232Z" stroke="black" stroke-width="2"/>
<path d="M313 1H382.5L392 12.4944V23.4663L382.5 30.7809H346.5V38.618H382.5L392 46.9775V86.1629L382.5 94H310.5L302.5 86.1629V74.1461L313 65.7865H349V58.4719H310.5L302.5 50.6348V12.4944L313 1Z" stroke="black" stroke-width="2"/>
<path d="M307.441 139H376.553L386 150.494V161.466L376.553 168.781H340.754V176.618H376.553L386 184.978V224.163L376.553 232H304.955L297 224.163V212.146L307.441 203.787H343.24V196.472H304.955L297 188.635V150.494L307.441 139Z" stroke="black" stroke-width="2"/>
<path d="M502.5 1H573.5L577.5 9.78333V22.1833L573.5 27.35H540.5V36.65H573.5L577.5 41.8167V54.2167L573.5 58.8667H540.5V68.6833H573.5L577.5 73.85V87.8L573.5 94H502.5L493 84.7V12.3667L502.5 1Z" stroke="black" stroke-width="2"/>
</svg>
