<svg width="83" height="47" viewBox="0 0 83 47" fill="none" xmlns="http://www.w3.org/2000/svg">
<mask id="path-1-inside-1" fill="white">
<path fill-rule="evenodd" clip-rule="evenodd" d="M25.3359 42.2266C27.8173 42.2266 30.1071 41.5702 31.9487 40.4626C33.2026 44.2269 37.4934 47 42.5938 47C47.2803 47 51.2833 44.6587 52.8748 41.3584C54.319 41.9148 55.9382 42.2266 57.6484 42.2266C63.6797 42.2266 68.5789 38.3489 68.663 33.5399C69.4879 33.6977 70.349 33.7812 71.2344 33.7812C77.3181 33.7812 82.25 29.8358 82.25 24.9688C82.25 20.1017 77.3181 16.1562 71.2344 16.1562C70.047 16.1562 68.9035 16.3065 67.832 16.5846C68.3682 15.5476 68.6641 14.4108 68.6641 13.2188C68.6641 8.35174 63.7322 4.40625 57.6484 4.40625C55.8764 4.40625 54.2021 4.74099 52.7189 5.33574C51.033 2.19759 47.1342 0 42.5938 0C37.6306 0 33.434 2.62589 32.0565 6.23579C30.1967 5.08859 27.8659 4.40625 25.3359 4.40625C19.2522 4.40625 14.3203 8.35174 14.3203 13.2188C14.3203 14.5115 14.6683 15.7393 15.2934 16.8454C13.9782 16.4016 12.5327 16.1562 11.0156 16.1562C4.93186 16.1562 0 20.1017 0 24.9688C0 29.8358 4.93186 33.7812 11.0156 33.7812C12.167 33.7812 13.2772 33.6399 14.3204 33.3778L14.3203 33.4141C14.3203 38.2811 19.2522 42.2266 25.3359 42.2266Z"/>
</mask>
<path d="M31.9487 40.4626L32.8975 40.1466L32.503 38.9624L31.4334 39.6057L31.9487 40.4626ZM52.8748 41.3584L53.2343 40.4252L52.3743 40.0939L51.974 40.924L52.8748 41.3584ZM68.663 33.5399L68.8509 32.5577L67.6839 32.3344L67.6631 33.5224L68.663 33.5399ZM67.832 16.5846L66.9437 16.1254L65.9149 18.1153L68.0833 17.5526L67.832 16.5846ZM52.7189 5.33574L51.838 5.809L52.2612 6.59669L53.0911 6.26389L52.7189 5.33574ZM32.0565 6.23579L31.5315 7.08688L32.5599 7.7213L32.9908 6.59231L32.0565 6.23579ZM15.2934 16.8454L14.9737 17.7929L17.4497 18.6284L16.164 16.3534L15.2934 16.8454ZM14.3204 33.3778L15.3204 33.3804L15.3238 32.0946L14.0767 32.4079L14.3204 33.3778ZM14.3203 33.4141L13.3203 33.4115V33.4141H14.3203ZM31.4334 39.6057C29.7535 40.6159 27.6431 41.2266 25.3359 41.2266V43.2266C27.9916 43.2266 30.4607 42.5245 32.4641 41.3196L31.4334 39.6057ZM42.5938 46C37.8084 46 33.9821 43.4026 32.8975 40.1466L31 40.7787C32.4232 45.0513 37.1784 48 42.5938 48V46ZM51.974 40.924C50.5828 43.809 46.9801 46 42.5938 46V48C47.5805 48 51.9838 45.5083 53.7755 41.7927L51.974 40.924ZM57.6484 41.2266C56.0593 41.2266 54.5621 40.9368 53.2343 40.4252L52.5153 42.2915C54.0759 42.8928 55.8171 43.2266 57.6484 43.2266V41.2266ZM67.6631 33.5224C67.5919 37.5951 63.3475 41.2266 57.6484 41.2266V43.2266C64.0119 43.2266 69.5658 39.1027 69.6628 33.5573L67.6631 33.5224ZM71.2344 32.7812C70.4118 32.7812 69.6137 32.7036 68.8509 32.5577L68.4751 34.522C69.3621 34.6917 70.2861 34.7812 71.2344 34.7812V32.7812ZM81.25 24.9688C81.25 29.0868 76.9856 32.7812 71.2344 32.7812V34.7812C77.6507 34.7812 83.25 30.5847 83.25 24.9688H81.25ZM71.2344 17.1562C76.9856 17.1562 81.25 20.8507 81.25 24.9688H83.25C83.25 19.3528 77.6507 15.1562 71.2344 15.1562V17.1562ZM68.0833 17.5526C69.0723 17.2959 70.1313 17.1562 71.2344 17.1562V15.1562C69.9627 15.1562 68.7348 15.3172 67.5808 15.6167L68.0833 17.5526ZM67.6641 13.2188C67.6641 14.2417 67.4109 15.2218 66.9437 16.1254L68.7203 17.0439C69.3255 15.8733 69.6641 14.5799 69.6641 13.2188H67.6641ZM57.6484 5.40625C63.3997 5.40625 67.6641 9.10072 67.6641 13.2188H69.6641C69.6641 7.60276 64.0647 3.40625 57.6484 3.40625V5.40625ZM53.0911 6.26389C54.454 5.71737 56.0018 5.40625 57.6484 5.40625V3.40625C55.751 3.40625 53.9502 3.7646 52.3467 4.40758L53.0911 6.26389ZM42.5938 1C46.8401 1 50.3588 3.05568 51.838 5.809L53.5998 4.86247C51.7071 1.33949 47.4283 -1 42.5938 -1V1ZM32.9908 6.59231C34.1865 3.45889 37.9411 1 42.5938 1V-1C37.32 -1 32.6816 1.79288 31.1222 5.87926L32.9908 6.59231ZM25.3359 5.40625C27.6884 5.40625 29.8362 6.04111 31.5315 7.08688L32.5815 5.38469C30.5573 4.13607 28.0434 3.40625 25.3359 3.40625V5.40625ZM15.3203 13.2188C15.3203 9.10072 19.5847 5.40625 25.3359 5.40625V3.40625C18.9197 3.40625 13.3203 7.60276 13.3203 13.2188H15.3203ZM16.164 16.3534C15.6178 15.387 15.3203 14.3276 15.3203 13.2188H13.3203C13.3203 14.6955 13.7187 16.0916 14.4228 17.3374L16.164 16.3534ZM11.0156 17.1562C12.4252 17.1562 13.7626 17.3842 14.9737 17.7929L15.6131 15.8979C14.1938 15.4189 12.6403 15.1562 11.0156 15.1562V17.1562ZM1 24.9688C1 20.8507 5.26438 17.1562 11.0156 17.1562V15.1562C4.59934 15.1562 -1 19.3528 -1 24.9688H1ZM11.0156 32.7812C5.26438 32.7812 1 29.0868 1 24.9688H-1C-1 30.5847 4.59934 34.7812 11.0156 34.7812V32.7812ZM14.0767 32.4079C13.1135 32.65 12.0853 32.7812 11.0156 32.7812V34.7812C12.2488 34.7812 13.4408 34.6299 14.5641 34.3476L14.0767 32.4079ZM15.3203 33.4167L15.3204 33.3804L13.3204 33.3752L13.3203 33.4115L15.3203 33.4167ZM25.3359 41.2266C19.5847 41.2266 15.3203 37.5321 15.3203 33.4141H13.3203C13.3203 39.0301 18.9197 43.2266 25.3359 43.2266V41.2266Z" fill="black" mask="url(#path-1-inside-1)"/>
</svg>
